<svg xmlns="http://www.w3.org/2000/svg" viewBox="0 0 192.35 240.82">
  <defs>
    <style>
      .cls-1 {
        fill: #cfcfcf;
      }
    </style>
  </defs>
  <title>address-icon</title>
  <g id="Layer_2" data-name="Layer 2">
    <g id="Layer_2-2" data-name="Layer 2">
      <g id="_3yamYL.tif" data-name="3yamYL.tif">
        <g>
          <path class="cls-1" d="M0,94.38c1-29.74,13-54.23,36-73C53.65,6.91,74.17-.14,97,0a96.22,96.22,0,0,1,88.19,59.74A93.78,93.78,0,0,1,192.29,99c-.41,11.5-4.21,22.2-8.71,32.63-9.6,22.28-22.54,42.65-36.64,62.29-8.35,11.63-17,23.06-25.82,34.35-12.63,16.19-35.8,16.92-48.79,1C48,199.51,25.48,168.45,9.57,133.15,4,120.87-.14,108.16,0,94.38ZM23.61,94c.18,2.55.19,4.56.46,6.53,1.46,10.44,5.42,20,10.06,29.39,15.16,30.54,35.13,57.87,56.47,84.28,3.4,4.2,8.47,3.88,11.87-.69,11-14.75,22.22-29.35,32.73-44.44,11.24-16.13,21.31-33,28.51-51.42,2.8-7.14,5.28-14.44,5-22.26C168,73.35,159.44,55,142.57,40.56c-25.68-21.9-65.21-22.4-91.33-1.14C33.76,53.66,24.69,72.08,23.61,94Z"/>
          <path class="cls-1" d="M96.35,46.54c23.83,0,42.84,19.34,42.8,43.57,0,23.09-19.63,42.33-43.1,42.32C72,132.42,53,113,53.35,88,53.7,65.49,72.27,46.63,96.35,46.54Zm-.13,62.05a19.15,19.15,0,0,0,19.27-18.87A19.36,19.36,0,0,0,96.14,70.07c-10.46.14-19,8.62-19.08,18.85C77,100.14,85.27,108.6,96.22,108.59Z"/>
        </g>
      </g>
    </g>
  </g>
</svg>
