<svg xmlns="http://www.w3.org/2000/svg" viewBox="0 0 185.42 176.72">
  <defs>
    <style>
      .cls-1 {
        <!-- fill: blue; -->
        <!-- fill: #FDA636; -->
        fill: white;
      }
    </style>
  </defs>
  <title>favorite-icon</title>
  <g id="Layer_2" data-name="Layer 2">
    <g id="Layer_1-2" data-name="Layer 1">
      <g id="O3xHZn.tif">
        <path class="cls-1" d="M92.78,20.42c5,13.36,10.23,27.1,15.27,40.64a15,15,0,0,0,14.12,10.22c14.45.63,29.1,1.33,43.47,2l-2.5,2Q148.55,87,134,98.67l-.59.41c-1.95,1.37-5.58,3.91-7.2,8.74-1.69,5-.07,9.41.71,11.53.07.2.15.4.21.59q4.92,18,9.86,35.9l.73,2.66C125,150.18,113.06,142.35,101,134.39a14.66,14.66,0,0,0-8.2-2.57,14.81,14.81,0,0,0-8.28,2.62c-9.59,6.33-19.35,12.76-28.79,19l-7.91,5.21q1.43-5.15,2.83-10.29l3.21-11.65c.53-1.92,1-3.84,1.58-5.76,1.31-4.79,2.66-9.75,4-14.57A14,14,0,0,0,54.57,101C43,91.8,31.33,82.44,19.94,73.31c8.59-.42,17.2-.83,25.6-1.22l10.39-.49,2.49-.13c1.82-.11,3.54-.2,5.18-.22a14.28,14.28,0,0,0,13.66-9.61C82.39,47.92,87.64,34,92.78,20.42M92.8,0h0c-3.3,0-5.8,1.87-7.11,5.36Q75.81,31.39,66,57.44a2.33,2.33,0,0,1-2.53,1.81c-2.71,0-5.42.23-8.13.36-15.74.75-31.48,1.47-47.21,2.28A10.41,10.41,0,0,0,3.6,63.06c-4.7,2.71-4.79,8.71-.32,12.29q21.9,17.54,43.81,35a2.12,2.12,0,0,1,.84,2.68c-1.93,6.79-3.77,13.62-5.64,20.44q-4.62,16.78-9.23,33.56c-1.1,4,.36,7.43,3.86,9a7,7,0,0,0,2.91.65A9,9,0,0,0,44.76,175q23.18-15.28,46.38-30.56a3,3,0,0,1,1.66-.63,2.83,2.83,0,0,1,1.58.58q23.33,15.4,46.72,30.68a8.67,8.67,0,0,0,4.72,1.51,7.22,7.22,0,0,0,4.38-1.49c2.41-1.81,3.2-4.72,2.22-8.29q-6.88-25-13.76-50.1c-.47-1.7-1.59-3.65-1.11-5.06s2.5-2.48,3.92-3.62q20.43-16.38,40.89-32.74a7.53,7.53,0,0,0,3-7c-.4-3.76-3.49-6.23-8.05-6.46-18.21-.88-36.41-1.77-54.63-2.56a3.17,3.17,0,0,1-3.39-2.41c-6.41-17.23-12.92-34.41-19.41-51.6C98.57,1.78,96.15,0,92.8,0Z"/>
      </g>
    </g>
  </g>
</svg>
