<svg xmlns="http://www.w3.org/2000/svg" viewBox="0 0 189.38 189.48">
  <defs>
    <style>
      .cls-1 {
        fill: #cfcfcf;
      }
    </style>
  </defs>
  <title>hour-icon</title>
  <g id="Layer_2" data-name="Layer 2">
    <g id="Layer_2-2" data-name="Layer 2">
      <g id="_9i4TMt.tif" data-name="9i4TMt.tif">
        <g>
          <path class="cls-1" d="M94.64,189.48C41.94,189.41,0,146.9,0,93.65,0,42.37,43.1-.17,94.79,0a95,95,0,0,1,94.59,95C189.39,146.92,146.66,189.55,94.64,189.48ZM17.72,94.26C18,137.69,52.26,172,95.08,171.73c42.2-.26,76.78-34.81,76.59-76.53-.2-43.23-34.51-77.65-77.2-77.45C52,18,17.46,52.41,17.72,94.26Z"/>
          <path class="cls-1" d="M85.78,69.41c0-8.25-.11-16.49,0-24.73.12-7.28,7.31-11.46,13.4-7.89,3.39,2,4.43,5.19,4.43,8.92,0,13.82.06,27.65-.07,41.47a8.15,8.15,0,0,0,2.65,6.52C114.72,102,123,110.57,131.49,119c2.84,2.82,4.19,6,3,9.92-2,6.3-9.57,8.14-14.55,3.45-4.49-4.22-8.77-8.66-13.13-13-5.9-5.88-11.76-11.8-17.72-17.62a10.63,10.63,0,0,1-3.29-8C85.79,85.57,85.77,77.49,85.78,69.41Z"/>
        </g>
      </g>
    </g>
  </g>
</svg>
