<svg xmlns="http://www.w3.org/2000/svg" viewBox="0 0 173.36 171.58">
  <defs>
    <style>
      .cls-1 {
        fill: #F55E6C;
      }
    </style>
  </defs>
  <title>info-icon</title>
  <g id="Layer_2" data-name="Layer 2">
    <g id="Layer_1-2" data-name="Layer 1">
      <g>
        <path class="cls-1" d="M61.09,12V60.7H12.39V12h48.7M64.2,0H9.28A8.89,8.89,0,0,0,.39,8.89V63.81A8.89,8.89,0,0,0,9.28,72.7H64.2a8.89,8.89,0,0,0,8.89-8.89V8.89A8.89,8.89,0,0,0,64.2,0Z"/>
        <path class="cls-1" d="M161.36,12V60.7h-48.7V12h48.7m3.11-12H109.55a8.89,8.89,0,0,0-8.89,8.89V63.81a8.89,8.89,0,0,0,8.89,8.89h54.92a8.89,8.89,0,0,0,8.89-8.89V8.89A8.89,8.89,0,0,0,164.47,0Z"/>
        <path class="cls-1" d="M60.7,110.88v48.7H12v-48.7H60.7m3.11-12H8.89A8.89,8.89,0,0,0,0,107.76v54.93a8.89,8.89,0,0,0,8.89,8.89H63.81a8.89,8.89,0,0,0,8.89-8.89V107.76a8.89,8.89,0,0,0-8.89-8.88Z"/>
        <path class="cls-1" d="M161,110.88v48.7h-48.7v-48.7H161m3.12-12H109.16a8.89,8.89,0,0,0-8.89,8.88v54.93a8.89,8.89,0,0,0,8.89,8.89h54.93a8.89,8.89,0,0,0,8.88-8.89V107.76a8.89,8.89,0,0,0-8.88-8.88Z"/>
      </g>
    </g>
  </g>
</svg>
