<svg xmlns="http://www.w3.org/2000/svg" viewBox="0 0 294.27 326.49">
    <defs>
      <style>
        #Layer_2 {
          fill: #fff;
        }
      </style>
    </defs>
  <title>website-icon</title>
  <g id="Layer_2" data-name="Layer 2">
    <g id="Layer_2-2" data-name="Layer 2">
      <g id="wE9wX0.tif">
        <path d="M228.3,326.44c-21.5-.61-41.6-6.73-61-15.55-33.89-15.41-63.17-37.26-88.8-64A294.78,294.78,0,0,1,7.73,124.93C2.38,106.79-.73,88.24.15,69.25.44,63,1.51,56.69,2.42,50.44,3,46.21,5.83,43.09,8.52,40c8.13-9.25,17.64-17,27.29-24.52q7.36-5.77,15-11.22C60.12-2.34,72.17-1.17,79.59,7a9.87,9.87,0,0,1,1.9,3.16q14.78,39,29.45,77.94A29.2,29.2,0,0,1,102.73,120c-6,5.12-12,10.32-18.24,15.18-2.58,2-3,4.24-2.66,7.16.9,6.79,3.47,13,6.55,19,8.51,16.61,20,31.07,32.91,44.38,8.81,9,18.19,17.42,29.45,23.34,3.2,1.68,6.79,2.61,10.21,3.89,1.68.63,3,0,4.29-1.09,6.14-5.25,12.36-10.41,18.54-15.61,8.83-7.42,18.66-8.06,29.07-4.14a45.35,45.35,0,0,1,6.9,3.45c21.83,12.8,43.58,25.72,65.46,38.42,5.54,3.21,8,8.06,8.82,13.94a20.09,20.09,0,0,1-5.73,17.68c-13,12.92-26.32,25.53-41.68,35.72C239.54,326,236.59,326.73,228.3,326.44ZM11,74.83A185.85,185.85,0,0,0,22.25,133Q59.32,237.17,155.41,292c20.89,11.93,43.13,20.41,67.43,22.51,7.47.65,14.25.21,20.65-4.82a430.35,430.35,0,0,0,36.34-32,11.46,11.46,0,0,0,2.62-5c.92-3.35-.41-7.13-2.71-8.48-22.74-13.37-45.46-26.78-68.27-40-7.33-4.26-14.78-3.77-20.32.85-6.52,5.45-13.2,10.73-19.43,16.49-3.51,3.25-7.26,3.61-11.5,3-8.72-1.3-16.32-5.33-23.3-10.34a191.94,191.94,0,0,1-60.55-71.22,54.29,54.29,0,0,1-6.18-22.21c-.2-5.2,1-9.65,5.51-13.15,6.67-5.11,12.91-10.78,19.33-16.21a17.71,17.71,0,0,0,5-19.29Q85.82,54.26,71.57,16.43a6.54,6.54,0,0,0-4.71-4.34,10.38,10.38,0,0,0-9.47,1.67c-6.29,4.79-12.74,9.4-18.78,14.5C31.3,34.43,24.33,41,17.27,47.47a12.57,12.57,0,0,0-4.17,8.27C12.46,62.11,11.73,68.47,11,74.83Z"/>
      </g>
    </g>
  </g>
</svg>
