<svg xmlns="http://www.w3.org/2000/svg" viewBox="0 0 309.93 308.97">
  <defs>
    <style>
      .cls-1 {
        fill: #cfcfcf;
      }
    </style>
  </defs>
  <title>price-icon</title>
  <g id="Layer_2" data-name="Layer 2">
    <g id="Layer_2-2" data-name="Layer 2">
      <g id="qSxAI7.tif">
        <g>
          <path class="cls-1" d="M237,0h62.24c7.61,0,10.7,3.11,10.7,10.8q0,62.23,0,124.47a12.8,12.8,0,0,1-4,9.76q-80.34,80.15-160.49,160.47c-4.52,4.53-10.5,4.65-15.21-.08Q67.19,242.12,3.9,179c-5.21-5.21-5.2-9.27.05-14.52Q84.28,84.19,164.6,3.85A12.48,12.48,0,0,1,174,0C195,.07,216,0,237,0Zm55.66,17.19h-3q-55.74,0-111.49,0A5.52,5.52,0,0,0,173.8,19Q104.92,88,36,157c-5,5-10,10-14.9,14.78l116.8,117c.54-.5,1.09-1,1.62-1.53Q215.18,211.59,290.87,136a5.62,5.62,0,0,0,1.77-4.37q-.08-55.74,0-111.49Z"/>
          <path class="cls-1" d="M163.71,145.4c4.2.46,8.09.45,11.75,1.36,13.66,3.38,22.43,14.6,22.92,28.85.45,12.86-8.38,25.41-21.09,29.32-3.5,1.07-7.37,1.13-11.09,1.33-2,.1-2.67.66-2.53,2.63a47.89,47.89,0,0,1,0,6,8.73,8.73,0,0,1-9.29,8.72c-4.37-.07-7.7-3.64-8-8.66a52.13,52.13,0,0,1,0-6.25c.12-1.92-.67-2.41-2.48-2.4-7.58.08-15.16,0-22.75.07-3.76,0-6.47-1.36-8-4.78s-1-7.7,1.88-10.11a10.31,10.31,0,0,1,5.84-2.13c7.66-.25,15.33-.17,23-.06,2,0,2.56-.49,2.53-2.51-.12-7.56-.05-15.12-.05-23h-4.14c-14.9,0-27.66-10.43-30.07-24.57C109.59,124,118,109.52,132.6,104.75a38.3,38.3,0,0,1,10.82-1.39c2.46-.08,3.22-.82,3-3.18a34.38,34.38,0,0,1,0-5.74c.37-4.94,3.65-8.18,8.28-8.33s8.29,3,8.82,8a43.31,43.31,0,0,1,.1,6.74c-.1,1.9.63,2.44,2.46,2.42,7.58-.08,15.17,0,22.75-.07,3.75,0,6.54,1.3,8,4.77,1.55,3.7,1.17,7.38-1.85,10.1a9.39,9.39,0,0,1-5.57,2.15c-7.75.23-15.5.16-23.25.06-1.94,0-2.59.43-2.55,2.48C163.78,130.35,163.71,137.92,163.71,145.4Zm-17.32-12.16V126c0-6.72,0-6.72-6.69-5.67a13,13,0,0,0-10,17.22c2.32,6.08,7.18,8.9,14.7,8.71,1.55-.05,2-.55,2-2.05C146.34,140.56,146.39,136.9,146.39,133.24Zm17.32,55.92c2.15,0,3.9.14,5.62,0a12.75,12.75,0,0,0,10.17-18.86c-2.58-4.88-9.44-8-14.71-6.58-.51.14-1,1.34-1,2.05-.09,4.9,0,9.81,0,14.72Z"/>
          <path class="cls-1" d="M223.9,60.19a25.79,25.79,0,1,1,51.58,0c0,13.95-11.84,25.88-25.56,25.81A26,26,0,0,1,223.9,60.19Zm26-8.58a8.58,8.58,0,1,0,8.31,8.51A8.39,8.39,0,0,0,249.86,51.61Z"/>
        </g>
      </g>
    </g>
  </g>
</svg>
