<svg xmlns="http://www.w3.org/2000/svg" viewBox="0 0 287.3 280.11">
  <defs>
    <style>
      .cls-1 {
        fill: #cfcfcf;
      }
    </style>
  </defs>
  <title>review-icon</title>
  <g id="Layer_2" data-name="Layer 2">
    <g id="Layer_2-2" data-name="Layer 2">
      <g id="DhA0Fr.tif">
        <g>
          <path class="cls-1" d="M287.3,166.08V272.57c0,.92,0,1.83,0,2.75a4.23,4.23,0,0,1-2.58,4.43c-2,.83-3.51.15-4.94-1.28q-8.91-8.94-17.88-17.83-15.16-15.06-30.34-30.11a9.9,9.9,0,0,0-7.37-3.05c-29.5.06-59,0-88.49.12-9.83,0-19.69.94-29.47.39-30.64-1.69-56.3-14.22-76.94-36.92-9.4-10.34-16.91-22-21.52-35.14a111.67,111.67,0,0,1-4.95-23.11C-.36,107-.59,81.1.85,55.21c1-18,9.83-32.23,24.22-43C36.34,3.84,49.19.11,63.18.16c32,.09,64,.29,96,.3,23.66,0,47.35-.87,71-.22C257.7,1,283.6,22.6,286.76,52.86a103.68,103.68,0,0,1,.51,10.72Q287.33,114.84,287.3,166.08Zm-22.61,65.61v-2.62q0-84.1,0-168.23a43.11,43.11,0,0,0-.76-8.19c-3.6-18.09-19-30.36-37.82-30.3q-80.87.27-161.73.5c-2.25,0-4.51.07-6.75.24C39.49,24.46,23.65,40.85,23.27,58.78c-.49,22.58-.85,45.18,1.55,67.68.77,7.15,1.83,14.46,4.14,21.23,3.68,10.8,10.14,20.21,17.9,28.61,15.47,16.76,34.42,26.91,57.29,28.75,8.6.69,17.3,0,26,0q47.12-.13,94.24-.24A31.3,31.3,0,0,1,246.91,214c5.38,5.22,10.55,10.65,15.82,16C263.23,230.45,263.78,230.89,264.69,231.69Z"/>
          <path class="cls-1" d="M103.75,110.49a10.2,10.2,0,0,1-1.49,1.88c-2.91,2.49-5.85,4.95-8.85,7.32a3,3,0,0,0-1.13,3.47c.88,3.38,1.6,6.8,2.49,10.17.47,1.77.41,3.36-1.12,4.5s-3.16.35-4.6-.55c-3-1.9-6.09-3.76-9.07-5.73a2.92,2.92,0,0,0-3.64,0,109.42,109.42,0,0,1-9.4,5.66,4.71,4.71,0,0,1-4,0c-.84-.57-1.28-2.51-1.07-3.69a85,85,0,0,1,2.59-10.4c.64-2,.1-3.24-1.47-4.47a78.29,78.29,0,0,1-7.6-6.46c-1-1-2-3-1.68-4.18.25-1,2.3-2,3.66-2.22a86.94,86.94,0,0,1,10.46-.69,3.13,3.13,0,0,0,3.35-2.29c1.13-3.12,2.41-6.2,3.68-9.27.69-1.66,1.6-3.16,3.74-3.15s2.76,1.55,3.39,3.15c1.24,3.17,2.59,6.3,3.7,9.52a3.13,3.13,0,0,0,3.27,2.38c3.66.18,7.31.53,11,.93C102,106.6,103.53,107.57,103.75,110.49Z"/>
          <path class="cls-1" d="M130.24,138.06c-2.62.09-4.08-1.89-3.48-4.52q1.26-5.47,2.79-10.87a3,3,0,0,0-1.2-3.66c-2.68-2.11-5.25-4.36-7.85-6.57-1.36-1.16-2.72-2.43-2-4.44s2.54-2.2,4.32-2.33c3.32-.23,6.64-.53,10-.57a3.24,3.24,0,0,0,3.46-2.5c1.09-3,2.35-6,3.59-9,.69-1.66,1.6-3.18,3.72-3.18s2.78,1.51,3.41,3.12c1.26,3.26,2.6,6.48,3.79,9.76a2.88,2.88,0,0,0,2.92,2.15c3.65.2,7.32.43,10.93,1a6.33,6.33,0,0,1,3.65,2.13c1,1.31.48,2.75-.94,3.86-2.94,2.32-5.74,4.82-8.7,7.12a3.22,3.22,0,0,0-1.29,3.87,94.6,94.6,0,0,1,2.37,10.19c.21,1.34-.21,3.46-1.12,4.1s-3.05.33-4.26-.31a98.42,98.42,0,0,1-9.09-5.67,3.25,3.25,0,0,0-4.08,0c-3.06,2-6.22,3.86-9.35,5.75A9.85,9.85,0,0,1,130.24,138.06Z"/>
          <path class="cls-1" d="M195,138.06a3.37,3.37,0,0,1-3.54-4.27c.9-3.81,1.81-7.61,2.9-11.37a2.63,2.63,0,0,0-1-3.2c-2.85-2.31-5.73-4.59-8.33-7.16-1-1-1.91-2.93-1.56-4s2.29-2.06,3.64-2.26a77.37,77.37,0,0,1,10.21-.69c1.93,0,3-.58,3.7-2.52,1.05-3.06,2.39-6,3.62-9,.69-1.69,1.58-3.18,3.71-3.17s2.77,1.54,3.4,3.14c1.28,3.25,2.63,6.47,3.8,9.76a2.84,2.84,0,0,0,2.92,2.12c3.66.21,7.31.54,11,.92,1.68.18,3.34.56,3.89,2.55s-.57,3-2,4.13c-2.75,2.15-5.36,4.49-8.09,6.67a2.81,2.81,0,0,0-1.16,3.42c1,3.35,1.6,6.8,2.47,10.18.45,1.75.44,3.35-1.1,4.52s-3.16.38-4.6-.51c-3-1.88-6.09-3.76-9.07-5.74a2.93,2.93,0,0,0-3.64,0c-3.15,2-6.37,3.94-9.58,5.87A10.24,10.24,0,0,1,195,138.06Z"/>
        </g>
      </g>
    </g>
  </g>
</svg>
