<svg xmlns="http://www.w3.org/2000/svg" viewBox="0 0 322.93 323.12">
    <defs>
      <style>
        #Layer_2 {
          fill: #fff;
        }
      </style>
    </defs>
  <title>phone-icon</title>
  <g id="Layer_2" data-name="Layer 2">
    <g id="Layer_2-2" data-name="Layer 2">
      <g id="Ny9rDz.tif">
        <g>
          <path d="M322.93,0V323.12H0V0ZM13.53,309.3H309.22V67.08H13.53ZM309.18,53V13.83H13.65V53Z"/>
          <path d="M34.22,189.22V133.5H203.31v55.72ZM189.68,147.3H48.06v28.17H189.68Z"/>
          <path d="M274.57,174.63l15.31,14.89L279.63,199.7c-1.4-1.57-3.09-3.59-4.91-5.48-2.88-3-5.9-5.87-8.75-8.9a2.88,2.88,0,0,0-3.83-.8c-16.82,7-35.52-2.56-39.07-20.2-2.32-11.53,1.19-21.39,10.54-28.55s19.91-8.2,30.48-2.73,15.51,14.65,15.44,26.5C279.5,164.93,277.64,169.79,274.57,174.63ZM236.21,158c-.08,8.5,6.22,15.06,14.54,15.15a14.8,14.8,0,0,0,15.12-14.39A15,15,0,0,0,251,143.48,14.79,14.79,0,0,0,236.21,158Z"/>
          <path d="M91,245.58V232.05h90.84v13.53Z"/>
          <path d="M233.67,266.49v13.43H147.81V266.49Z"/>
          <path d="M130.31,266.51v13.43H91V266.51Z"/>
          <path d="M196.75,245.61V232h36.9v13.58Z"/>
          <path d="M32.68,39.14c0-.59-.11-1.08-.11-1.56,0-3.9,0-7.81,0-11.9h90.92V39.14Z"/>
          <path d="M212.94,34.33c0,5.63-4.67,10.37-10.07,10.27a10.52,10.52,0,0,1-10.45-10.26,10.26,10.26,0,1,1,20.52,0Zm-10.39-3.45a3.17,3.17,0,0,0-3.26,3.28,3.41,3.41,0,1,0,3.26-3.28Z"/>
          <path d="M226.87,34.29a10.33,10.33,0,0,1,10.27-10.35,10.33,10.33,0,1,1-10.27,10.35Zm13.62.12a3.37,3.37,0,0,0-3.37-3.53A3.29,3.29,0,0,0,233.64,34a3.48,3.48,0,0,0,3.24,3.69A3.4,3.4,0,0,0,240.49,34.41Z"/>
          <path d="M261.28,34.28a10.28,10.28,0,0,1,10.28-10.34,10.33,10.33,0,1,1-10.28,10.34ZM271.4,37.7a3.43,3.43,0,0,0,3.52-3.4,3.47,3.47,0,0,0-3.52-3.42A3.36,3.36,0,0,0,268,34.12,3.54,3.54,0,0,0,271.4,37.7Z"/>
        </g>
      </g>
    </g>
  </g>
</svg>
